<svg xmlns="http://www.w3.org/2000/svg" xmlns:xlink="http://www.w3.org/1999/xlink" width="403" zoomAndPan="magnify" viewBox="0 0 302.25 323.999988" height="432" preserveAspectRatio="xMidYMid meet" version="1.0"><defs><clipPath id="31c1e75158"><path d="M 0 1 L 300.753906 1 L 300.753906 323.597656 L 0 323.597656 Z M 0 1 " clip-rule="nonzero"/></clipPath><clipPath id="03f12c3bff"><path d="M 72.1875 97.765625 L 81 97.765625 L 81 106.496094 L 72.1875 106.496094 Z M 72.1875 97.765625 " clip-rule="nonzero"/></clipPath><clipPath id="ece12cbc0b"><path d="M 80.988281 100.875 C 79.863281 105.664062 79.339844 106.039062 78.59375 106.261719 C 77.546875 106.636719 75.375 106.488281 74.402344 106.039062 C 73.730469 105.738281 73.28125 105.140625 72.90625 104.542969 C 72.53125 103.945312 72.234375 103.269531 72.234375 102.449219 C 72.308594 101.398438 73.207031 99.457031 73.953125 98.632812 C 74.550781 98.109375 75.152344 97.808594 75.898438 97.808594 C 77.019531 97.734375 79.9375 99.007812 79.9375 99.007812 " clip-rule="nonzero"/></clipPath></defs><g clip-path="url(#31c1e75158)"><path fill="#eb8d82" d="M 178.480469 265.984375 C 118.082031 258.386719 91.292969 227.230469 83.453125 215.972656 C 113.339844 211.878906 125.207031 197.050781 125.207031 197.050781 C 114.460938 209.40625 73.570312 211.402344 73.570312 211.402344 C 56.140625 208.238281 44.691406 190.175781 50.511719 172.589844 C 50.5625 172.4375 50.613281 172.285156 50.664062 172.132812 C 52.015625 168.144531 55.800781 165.488281 60.003906 165.585938 C 59.789062 166.007812 59.570312 166.429688 59.371094 166.875 C 58.917969 168.011719 58.410156 169.160156 58.074219 170.390625 C 57.65625 171.585938 57.429688 172.859375 57.148438 174.105469 C 56.980469 175.375 56.753906 176.628906 56.730469 177.886719 C 56.621094 179.128906 56.703125 180.363281 56.730469 181.539062 C 56.769531 182.128906 56.855469 182.707031 56.914062 183.269531 C 56.945312 183.550781 56.976562 183.828125 57.007812 184.101562 C 57.046875 184.375 57.113281 184.640625 57.164062 184.910156 C 57.269531 185.433594 57.375 185.945312 57.476562 186.4375 C 57.582031 186.933594 57.75 187.394531 57.875 187.84375 C 58.011719 188.292969 58.128906 188.71875 58.265625 189.121094 C 58.425781 189.511719 58.578125 189.886719 58.71875 190.234375 C 58.859375 190.585938 58.992188 190.910156 59.117188 191.214844 C 59.246094 191.507812 59.398438 191.769531 59.519531 192.011719 C 60.019531 192.960938 60.300781 193.503906 60.300781 193.503906 C 60.300781 193.503906 60.09375 192.925781 59.730469 191.921875 C 59.648438 191.667969 59.53125 191.398438 59.445312 191.085938 C 59.367188 190.777344 59.28125 190.441406 59.191406 190.078125 C 59.097656 189.722656 59.003906 189.34375 58.902344 188.945312 C 58.820312 188.535156 58.765625 188.101562 58.691406 187.660156 C 58.632812 187.207031 58.535156 186.75 58.496094 186.265625 C 58.464844 185.78125 58.433594 185.28125 58.398438 184.765625 C 58.386719 184.507812 58.359375 184.25 58.359375 183.984375 C 58.363281 183.722656 58.371094 183.457031 58.378906 183.183594 C 58.398438 182.648438 58.386719 182.097656 58.429688 181.542969 C 58.558594 180.433594 58.636719 179.289062 58.898438 178.152344 C 59.078125 177 59.453125 175.878906 59.753906 174.75 C 60.175781 173.65625 60.527344 172.542969 61.050781 171.523438 C 61.496094 170.472656 62.097656 169.519531 62.621094 168.582031 C 62.90625 168.125 63.226562 167.699219 63.511719 167.273438 C 64.957031 165.179688 67.105469 165.332031 69.4375 165.128906 C 71.726562 164.929688 74.023438 164.582031 76.285156 164.214844 C 80.738281 163.496094 85.144531 162.453125 89.335938 160.773438 C 95.25 158.398438 100.792969 155.105469 105.65625 150.984375 C 113.703125 144.171875 122.140625 137.867188 130.933594 132.128906 C 150.144531 153.039062 175.164062 150.316406 175.164062 150.316406 C 109.625 139.035156 132.445312 71.675781 132.445312 71.675781 C 141.097656 85.734375 169.371094 94.109375 187.042969 98.097656 C 197.144531 100.648438 226.773438 109.636719 232.105469 128.292969 C 232.105469 128.292969 233.21875 113.210938 208.464844 99.15625 C 239.371094 91.011719 271.066406 86.117188 300.960938 83.316406 C 272.84375 33.765625 219.191406 0.605469 157.886719 1.753906 C 70.441406 3.398438 -0.0117188 75.371094 0.125 162.832031 C 0.261719 251.550781 72.222656 323.429688 160.972656 323.429688 C 172.359375 323.429688 183.464844 322.242188 194.183594 319.992188 C 214.347656 315.753906 219.804688 289.417969 202.839844 277.714844 C 194.085938 271.675781 185.1875 266.828125 178.480469 265.984375 " fill-opacity="1" fill-rule="nonzero"/></g><g clip-path="url(#03f12c3bff)"><g clip-path="url(#ece12cbc0b)"><path fill="#eb8d82" d="M 69.242188 94.816406 L 84.039062 94.816406 L 84.039062 109.332031 L 69.242188 109.332031 Z M 69.242188 94.816406 " fill-opacity="1" fill-rule="nonzero"/></g></g></svg>