<svg xmlns="http://www.w3.org/2000/svg" xmlns:xlink="http://www.w3.org/1999/xlink" width="1768" zoomAndPan="magnify" viewBox="0 0 1326 323.999988" height="432" preserveAspectRatio="xMidYMid meet" version="1.0"><defs><g/><clipPath id="7cad0ab9ff"><path d="M 323.566406 1 L 625.066406 1 L 625.066406 324 L 323.566406 324 Z M 323.566406 1 " clip-rule="nonzero"/></clipPath></defs><g clip-path="url(#7cad0ab9ff)"><path fill="#eb8d82" d="M 502.488281 266.242188 C 441.941406 258.625 415.085938 227.390625 407.226562 216.109375 C 437.1875 212.003906 449.082031 197.136719 449.082031 197.136719 C 438.3125 209.523438 397.320312 211.523438 397.320312 211.523438 C 379.847656 208.351562 368.371094 190.246094 374.203125 172.617188 C 374.253906 172.460938 374.308594 172.308594 374.359375 172.15625 C 375.710938 168.160156 379.507812 165.5 383.71875 165.59375 C 383.503906 166.019531 383.285156 166.441406 383.085938 166.886719 C 382.632812 168.027344 382.121094 169.175781 381.785156 170.410156 C 381.367188 171.609375 381.140625 172.886719 380.859375 174.136719 C 380.691406 175.410156 380.464844 176.664062 380.4375 177.925781 C 380.328125 179.171875 380.410156 180.410156 380.4375 181.589844 C 380.476562 182.175781 380.5625 182.757812 380.621094 183.320312 C 380.652344 183.601562 380.683594 183.882812 380.71875 184.15625 C 380.753906 184.429688 380.820312 184.699219 380.871094 184.964844 C 380.980469 185.492188 381.082031 186.003906 381.183594 186.5 C 381.292969 186.996094 381.460938 187.460938 381.585938 187.90625 C 381.722656 188.355469 381.839844 188.785156 381.980469 189.1875 C 382.140625 189.582031 382.289062 189.953125 382.433594 190.304688 C 382.574219 190.65625 382.707031 190.980469 382.828125 191.285156 C 382.960938 191.582031 383.113281 191.84375 383.234375 192.085938 C 383.734375 193.035156 384.019531 193.582031 384.019531 193.582031 C 384.019531 193.582031 383.8125 193.003906 383.449219 191.996094 C 383.363281 191.742188 383.246094 191.472656 383.160156 191.160156 C 383.082031 190.847656 382.996094 190.511719 382.90625 190.148438 C 382.8125 189.792969 382.71875 189.414062 382.617188 189.011719 C 382.535156 188.601562 382.480469 188.167969 382.40625 187.722656 C 382.34375 187.269531 382.246094 186.8125 382.207031 186.324219 C 382.175781 185.839844 382.144531 185.339844 382.113281 184.820312 C 382.097656 184.566406 382.070312 184.304688 382.070312 184.039062 C 382.078125 183.777344 382.082031 183.507812 382.089844 183.238281 C 382.109375 182.699219 382.101562 182.148438 382.140625 181.589844 C 382.269531 180.476562 382.347656 179.332031 382.613281 178.191406 C 382.792969 177.035156 383.167969 175.910156 383.46875 174.78125 C 383.894531 173.683594 384.246094 172.570312 384.773438 171.546875 C 385.214844 170.492188 385.820312 169.539062 386.34375 168.597656 C 386.632812 168.140625 386.949219 167.714844 387.238281 167.289062 C 388.6875 165.1875 390.835938 165.339844 393.179688 165.136719 C 395.472656 164.9375 397.773438 164.585938 400.042969 164.21875 C 404.507812 163.5 408.921875 162.457031 413.125 160.769531 C 419.054688 158.390625 424.609375 155.085938 429.484375 150.957031 C 437.550781 144.125 446.011719 137.808594 454.828125 132.054688 C 474.085938 153.019531 499.164062 150.285156 499.164062 150.285156 C 433.464844 138.980469 456.339844 71.449219 456.339844 71.449219 C 465.015625 85.542969 493.359375 93.941406 511.074219 97.941406 C 521.199219 100.496094 550.902344 109.503906 556.25 128.210938 C 556.25 128.210938 557.363281 113.089844 532.546875 99 C 563.53125 90.835938 595.304688 85.929688 625.277344 83.121094 C 597.089844 33.445312 543.304688 0.207031 481.847656 1.355469 C 394.183594 3.003906 323.554688 75.15625 323.691406 162.835938 C 323.828125 251.773438 395.96875 323.828125 484.941406 323.828125 C 496.355469 323.828125 507.488281 322.640625 518.230469 320.386719 C 538.449219 316.136719 543.917969 289.734375 526.910156 278 C 518.132812 271.949219 509.214844 267.085938 502.488281 266.242188 " fill-opacity="1" fill-rule="nonzero"/></g><g fill="#ededed" fill-opacity="1"><g transform="translate(500.199209, 218.235671)"><g><path d="M 27.09375 1 C 21.5625 1 14.960938 0.46875 7.296875 -0.59375 L 7.296875 -8.703125 C 15.035156 -7.035156 21.835938 -6.203125 27.703125 -6.203125 C 32.628906 -6.203125 36.226562 -6.75 38.5 -7.84375 C 40.769531 -8.945312 41.90625 -11 41.90625 -14 L 41.90625 -22.40625 C 41.90625 -25.195312 41.101562 -27.160156 39.5 -28.296875 C 37.894531 -29.429688 35.09375 -30 31.09375 -30 L 23.5 -30 C 17.164062 -30 12.664062 -31.265625 10 -33.796875 C 7.332031 -36.328125 6 -40.257812 6 -45.59375 L 6 -50.796875 C 6 -54.328125 6.78125 -57.191406 8.34375 -59.390625 C 9.914062 -61.597656 12.550781 -63.234375 16.25 -64.296875 C 19.945312 -65.367188 25.03125 -65.90625 31.5 -65.90625 C 35.832031 -65.90625 41.398438 -65.535156 48.203125 -64.796875 L 48.203125 -57.5 C 40.597656 -58.632812 34.796875 -59.203125 30.796875 -59.203125 C 24.597656 -59.203125 20.5 -58.601562 18.5 -57.40625 C 16.4375 -56.132812 15.40625 -54.03125 15.40625 -51.09375 L 15.40625 -43.703125 C 15.40625 -41.429688 16.21875 -39.78125 17.84375 -38.75 C 19.476562 -37.71875 22.296875 -37.203125 26.296875 -37.203125 L 34.09375 -37.203125 C 38.5625 -37.203125 42.046875 -36.664062 44.546875 -35.59375 C 47.046875 -34.53125 48.8125 -32.914062 49.84375 -30.75 C 50.882812 -28.582031 51.40625 -25.664062 51.40625 -22 L 51.40625 -17.296875 C 51.40625 -12.703125 50.550781 -9.070312 48.84375 -6.40625 C 47.144531 -3.738281 44.53125 -1.835938 41 -0.703125 C 37.46875 0.429688 32.832031 1 27.09375 1 Z M 27.09375 1 "/></g></g></g><g fill="#ededed" fill-opacity="1"><g transform="translate(555.49701, 218.235671)"><g><path d="M 24.59375 1 C 18.394531 1 14.046875 -0.113281 11.546875 -2.34375 C 9.046875 -4.582031 7.796875 -8.101562 7.796875 -12.90625 L 7.796875 -48.40625 L 16.796875 -48.40625 L 16.796875 -13.40625 C 16.796875 -12.132812 16.910156 -11.113281 17.140625 -10.34375 C 17.378906 -9.582031 17.800781 -8.800781 18.40625 -8 C 19.601562 -6.269531 22.535156 -5.40625 27.203125 -5.40625 C 32.128906 -5.40625 35.59375 -5.867188 37.59375 -6.796875 C 39.53125 -7.734375 40.5 -9.4375 40.5 -11.90625 L 40.5 -48.40625 L 49.5 -48.40625 L 49.5 0 L 40.5 0 L 40.5 -5.90625 C 39.632812 -1.300781 34.332031 1 24.59375 1 Z M 24.59375 1 "/></g></g></g><g fill="#ededed" fill-opacity="1"><g transform="translate(611.194805, 218.235671)"><g><path d="M 7.90625 -48.40625 L 16.90625 -48.40625 L 16.90625 0 L 7.90625 0 Z M 16.296875 -68 L 27.203125 -68 L 14.703125 -55.296875 L 7.296875 -55.296875 Z M 16.296875 -68 "/></g></g></g><g fill="#ededed" fill-opacity="1"><g transform="translate(634.193857, 218.235671)"><g><path d="M 8.40625 -64.90625 L 20.09375 -64.90625 L 55.40625 -11.296875 L 55.40625 -64.90625 L 63.90625 -64.90625 L 63.90625 0 L 52.203125 0 L 16.90625 -54.5 L 16.90625 0 L 8.40625 0 Z M 8.40625 -64.90625 "/></g></g></g><g fill="#ededed" fill-opacity="1"><g transform="translate(704.891056, 218.235671)"><g><path d="M 27.296875 -64.90625 L 38.5 -64.90625 L 63.703125 0 L 53.59375 0 L 46.203125 -19.703125 L 18.40625 -19.703125 L 11.09375 0 L 1.5 0 Z M 43.796875 -26.40625 L 32.796875 -55.703125 L 31.90625 -55.703125 L 20.90625 -26.40625 Z M 43.796875 -26.40625 "/></g></g></g><g fill="#ededed" fill-opacity="1"><g transform="translate(768.488547, 218.235671)"><g><path d="M 27.09375 1 C 21.5625 1 14.960938 0.46875 7.296875 -0.59375 L 7.296875 -8.703125 C 15.035156 -7.035156 21.835938 -6.203125 27.703125 -6.203125 C 32.628906 -6.203125 36.226562 -6.75 38.5 -7.84375 C 40.769531 -8.945312 41.90625 -11 41.90625 -14 L 41.90625 -22.40625 C 41.90625 -25.195312 41.101562 -27.160156 39.5 -28.296875 C 37.894531 -29.429688 35.09375 -30 31.09375 -30 L 23.5 -30 C 17.164062 -30 12.664062 -31.265625 10 -33.796875 C 7.332031 -36.328125 6 -40.257812 6 -45.59375 L 6 -50.796875 C 6 -54.328125 6.78125 -57.191406 8.34375 -59.390625 C 9.914062 -61.597656 12.550781 -63.234375 16.25 -64.296875 C 19.945312 -65.367188 25.03125 -65.90625 31.5 -65.90625 C 35.832031 -65.90625 41.398438 -65.535156 48.203125 -64.796875 L 48.203125 -57.5 C 40.597656 -58.632812 34.796875 -59.203125 30.796875 -59.203125 C 24.597656 -59.203125 20.5 -58.601562 18.5 -57.40625 C 16.4375 -56.132812 15.40625 -54.03125 15.40625 -51.09375 L 15.40625 -43.703125 C 15.40625 -41.429688 16.21875 -39.78125 17.84375 -38.75 C 19.476562 -37.71875 22.296875 -37.203125 26.296875 -37.203125 L 34.09375 -37.203125 C 38.5625 -37.203125 42.046875 -36.664062 44.546875 -35.59375 C 47.046875 -34.53125 48.8125 -32.914062 49.84375 -30.75 C 50.882812 -28.582031 51.40625 -25.664062 51.40625 -22 L 51.40625 -17.296875 C 51.40625 -12.703125 50.550781 -9.070312 48.84375 -6.40625 C 47.144531 -3.738281 44.53125 -1.835938 41 -0.703125 C 37.46875 0.429688 32.832031 1 27.09375 1 Z M 27.09375 1 "/></g></g></g></svg>